<?xml version="1.0" encoding="utf-8"?>
<!-- Generator: Adobe Illustrator 23.0.6, SVG Export Plug-In . SVG Version: 6.00 Build 0)  -->
<svg version="1.1" id="Layer_1" xmlns="http://www.w3.org/2000/svg" xmlns:xlink="http://www.w3.org/1999/xlink" x="0px" y="0px"
	 viewBox="0 0 40 32" style="enable-background:new 0 0 40 32;" xml:space="preserve">
<style type="text/css">
	.st0{fill-rule:evenodd;clip-rule:evenodd;fill:#FFFFFF;}
</style>
<title>roundel</title>
<desc>Created with Sketch.</desc>
<path class="st0" d="M40,13h-4.3C34.3,5.6,27.8,0,20,0S5.7,5.6,4.3,13H0v6h4.3c1.4,7.4,7.9,13,15.7,13s14.3-5.6,15.7-13H40V13z
	 M20,6c4.5,0,8.3,2.9,9.5,7H10.5C11.7,8.9,15.5,6,20,6z M20,26c-4.5,0-8.3-2.9-9.5-7h19.1C28.3,23.1,24.5,26,20,26z"/>
</svg>
